# xmcd CD database file
# Copyright (C) 1995 Ti Kan
#
# Track frame offsets:
#	150
#	20717
#	35367
#	48485
#	68197
#	85797
#	100247
#	115660
#	129445
#	144947
#	157490
#
# Disc length: 2316 seconds
#
# Revision: 1
# Processed by: cddbd v1.4b41PL2 Copyright (c) Steve Scherf et al.
# Submitted via: NotifyCDPlayer(CDDB) 1.60beta5_freedb
#
DISCID=93090a0b
DTITLE=John Mooney - Late Last Night
DYEAR=1900
DGENRE=
TTITLE0=Late Last Night
TTITLE1=RIP
TTITLE2=Country Gal
TTITLE3=Baby Please Don't Go
TTITLE4=Travelin' On
TTITLE5=Lovin' Mood
TTITLE6=It Don't Matter
TTITLE7=Out That Door
TTITLE8=Late On In the Evening
TTITLE9=Coma Mama
TTITLE10=Country Boy
EXTD=Bullseye Blues/Rounder CD BB 9509
EXTT0=
EXTT1=
EXTT2=
EXTT3=
EXTT4=
EXTT5=
EXTT6=
EXTT7=
EXTT8=
EXTT9=
EXTT10=
PLAYORDER=
